<?xml version="1.0" encoding="UTF-8" standalone="no"?>
<svg
   version="1.1"
   width="540pt"
   height="540pt"
   viewBox="0 0 540 540"
   id="svg15"
   sodipodi:docname="tan-on-black.svg"
   inkscape:export-filename="C:\Users\stirz\Downloads\drive-download-20210814T170517Z-001\tan-on-black.png"
   inkscape:export-xdpi="144"
   inkscape:export-ydpi="144"
   inkscape:version="1.1 (c68e22c387, 2021-05-23)"
   xmlns:inkscape="http://www.inkscape.org/namespaces/inkscape"
   xmlns:sodipodi="http://sodipodi.sourceforge.net/DTD/sodipodi-0.dtd"
   xmlns="http://www.w3.org/2000/svg"
   xmlns:svg="http://www.w3.org/2000/svg">
  <defs
     id="defs19">
    <clipPath
       id="cp3">
      <path
         transform="matrix(1,0,0,-1,0,540)"
         d="M 0 .00001206994 L 540 .00001206994 L 540 540 L 0 540 Z "
         id="path2" />
    </clipPath>
  </defs>
  <sodipodi:namedview
     id="namedview17"
     pagecolor="#ffffff"
     bordercolor="#666666"
     borderopacity="1.0"
     inkscape:pageshadow="2"
     inkscape:pageopacity="0.0"
     inkscape:pagecheckerboard="0"
     inkscape:document-units="pt"
     showgrid="false"
     inkscape:zoom="0.71111111"
     inkscape:cx="359.29687"
     inkscape:cy="359.29687"
     inkscape:window-width="1366"
     inkscape:window-height="697"
     inkscape:window-x="-8"
     inkscape:window-y="-8"
     inkscape:window-maximized="1"
     inkscape:current-layer="svg15" />
  <path
     stroke-width="6"
     stroke-linecap="butt"
     stroke-linejoin="round"
     fill="none"
     stroke="#eed7c5"
     d="m 170.6455,296.355 -0.2671,0.1952 c -0.5814,0.2899 -1.3466,0.5794 -2.2958,0.8684 -3.7966,1.1559 -8.2064,2.2152 -13.2294,3.1781 -5.023,0.9628 -9.7166,1.7889 -14.0808,2.4783 -4.3642,0.6894 -8.4024,1.2992 -12.1145,1.8295 -7.6082,1.1153 -14.0936,2.82226 -19.4563,5.12079 -5.3627,2.29853 -9.402141,5.22224 -12.118291,8.77112 -2.71614,3.54889 -4.07421,8.03948 -4.07421,13.47177 0,7.74408 2.84872,13.65738 8.546161,17.73988 5.69744,4.08251 13.24264,6.12376 22.63564,6.12376 9.2903,0 17.4031,-1.80593 24.3384,-5.41779 6.9354,-3.61186 12.3553,-8.46537 16.2596,-14.56055 3.9044,-6.09517 5.8566,-13.01148 5.8566,-20.74894 z m 231.3522,-86.1095 c -9.4493,0 -17.7602,2.1423 -24.9325,6.427 -7.1724,4.2847 -12.8052,10.0571 -16.8984,17.3173 -3.07,5.4451 -5.0027,10.4978 -5.7982,15.1581 l -0.2116,2.3021 h 93.3407 c 0,-5.9626 -1.9294,-12.3689 -5.7881,-19.2189 -3.8589,-6.85 -9.1863,-12.2268 -15.9825,-16.1304 -6.7961,-3.9035 -14.7059,-5.8552 -23.7294,-5.8552 z m -1.1136,-59.5 c 16.6747,0 32.2515,2.6697 46.7305,8.0092 14.4789,5.3395 27.1929,13.4005 38.142,24.183 10.9491,10.7826 19.4538,24.2453 25.5142,40.388 6.0604,16.1428 9.0906,34.7978 9.0906,55.9652 v 23.0682 H 354.1526 l 0.1867,4.0047 c 0.7742,7.97831 2.7096,14.99112 5.8063,21.03844 4.1289,8.0631 9.942,14.25728 17.4391,18.58256 7.4972,4.32528 16.5364,6.48793 27.1176,6.48793 7.1027,0 13.4784,-0.95745 19.1269,-2.87234 5.6486,-1.91489 10.4826,-4.78598 14.5022,-8.61328 4.0195,-3.82729 7.4494,-9.43815 10.2899,-16.83257 l 70.3082,4.55149 c -3.4403,19.16549 -10.2965,34.60684 -20.5687,46.32405 -10.2721,11.71721 -23.4369,20.80362 -39.4943,27.25923 -16.0574,6.45561 -34.4834,9.68342 -55.2779,9.68342 -25.9649,0 -48.3421,-5.31712 -67.1314,-15.95135 -18.7893,-10.63423 -33.245,-25.71597 -43.3671,-45.24521 -10.1222,-19.52923 -15.1833,-42.56219 -15.1833,-69.09887 0,-25.8506 5.052,-48.6048 15.1559,-68.2625 10.1039,-19.6576 24.4188,-35.0169 42.9446,-46.0779 18.5258,-11.061 40.1514,-16.5914 64.8768,-16.5914 z m -262.2159,0 c 13.9337,0 27.3549,1.6476 40.2637,4.943 12.9087,3.2953 24.4987,8.4786 34.77,15.5499 10.2713,7.0712 18.3903,16.1518 24.3571,27.2418 5.9667,11.09 8.9501,24.239 8.9501,39.4471 V 407.2 h -73.3409 v -25.60772 l -1.0537,1.42932 c -2.5883,3.1783 -5.6248,6.2989 -9.1095,9.36181 -6.9693,6.12583 -15.3224,10.89566 -25.0593,14.30949 -9.7369,3.41382 -20.9581,5.12074 -33.6639,5.12074 -16.325031,0 -30.911671,-2.8769 -43.759921,-8.63069 -12.84824,-5.75378 -23.03213,-14.36955 -30.55167,-25.8473 -7.51953,-11.47774 -11.2793,-25.75781 -11.2793,-42.84019 0,-14.36624 2.66353,-26.47952 7.99059,-36.33986 5.32706,-9.8603 12.52966,-17.7606 21.60778,-23.7008 9.07813,-5.9402 19.30966,-10.3952 30.6946,-13.3649 11.38495,-2.9697 23.208211,-5.0461 35.469821,-6.2294 13.7614,-1.4368 24.9006,-2.8044 33.4178,-4.1028 8.5171,-1.2984 14.2792,-2.9635 17.2862,-4.9952 3.007,-2.0317 4.5105,-4.8556 4.5105,-8.4716 v -0.9545 c 0,-8.6539 -2.7125,-15.3515 -8.1373,-20.0927 -5.4248,-4.7412 -13.3185,-7.1119 -23.6809,-7.1119 -11.1198,0 -19.8922,2.3856 -26.3171,7.1566 -6.425,4.7711 -11.00298,11.7719 -13.734031,21.0025 l -70.51704,-5.5011 c 3.38399,-18.8704 9.98792,-34.0276 19.81178,-45.4714 9.82386,-11.4437 22.44798,-20.2335 37.87234,-26.3693 15.424361,-6.1357 33.158451,-9.2036 53.202251,-9.2036 z"
     id="path11" />
</svg>
