<?xml version="1.0" standalone="no"?>
<!DOCTYPE svg PUBLIC "-//W3C//DTD SVG 20010904//EN"
 "http://www.w3.org/TR/2001/REC-SVG-20010904/DTD/svg10.dtd">
<svg version="1.0" xmlns="http://www.w3.org/2000/svg"
 width="700.000000pt" height="700.000000pt" viewBox="0 0 700.000000 700.000000"
 preserveAspectRatio="xMidYMid meet">
<metadata>
Created by potrace 1.14, written by Peter Selinger 2001-2017
</metadata>
<g transform="translate(0.000000,700.000000) scale(0.100000,-0.100000)"
fill="#000000" stroke="none">
<path d="M1588 5079 c-432 -38 -802 -216 -1022 -491 -112 -140 -223 -398 -242
-564 -6 -49 -5 -54 17 -63 29 -12 932 -83 953 -75 8 3 20 22 27 42 39 125 140
240 243 280 125 48 328 49 434 2 102 -45 162 -142 162 -261 0 -123 -47 -139
-620 -204 -566 -65 -856 -169 -1070 -384 -182 -183 -260 -394 -260 -702 0
-309 86 -536 275 -724 166 -167 399 -271 685 -306 114 -14 374 -6 476 15 200
41 386 131 512 249 l52 50 0 -120 c0 -79 4 -123 12 -131 9 -9 134 -12 499 -12
268 0 494 3 503 6 14 6 16 120 16 1189 0 1276 1 1262 -53 1420 -54 157 -133
283 -251 400 -90 89 -178 151 -312 218 -275 138 -660 200 -1036 166z m447 -89
c217 -25 405 -79 569 -163 289 -148 455 -355 533 -667 15 -58 17 -193 20
-1232 l4 -1168 -436 0 -435 0 0 160 c0 150 -1 160 -20 170 -26 14 -29 12 -114
-78 -199 -209 -442 -303 -791 -303 -210 0 -352 24 -513 87 -282 111 -476 337
-536 626 -34 162 -30 370 9 523 22 89 96 231 159 307 68 82 159 152 274 211
205 106 369 147 802 197 312 37 487 66 556 91 102 39 146 119 130 240 -29 220
-189 339 -456 339 -249 0 -414 -91 -507 -278 -21 -42 -39 -78 -39 -80 -1 -1
-188 12 -417 30 l-416 32 6 26 c21 91 59 204 88 267 170 368 559 611 1065 666
78 8 381 6 465 -3z"/>
<path d="M2188 3195 c-16 -16 -192 -52 -521 -105 -141 -23 -222 -47 -310 -92
-167 -84 -231 -245 -171 -430 48 -148 243 -240 475 -225 288 18 503 176 575
422 24 83 27 410 4 425 -16 10 -44 13 -52 5z m-28 -373 c-32 -178 -182 -324
-385 -377 -74 -19 -242 -20 -313 -1 -68 19 -135 58 -165 99 -82 110 -56 276
56 353 88 61 181 87 502 139 88 14 194 33 235 43 l75 18 3 -109 c1 -60 -2
-134 -8 -165z"/>
<path d="M4991 5079 c-381 -40 -686 -183 -947 -443 -309 -310 -462 -693 -481
-1206 -28 -758 282 -1355 847 -1636 223 -111 452 -163 751 -171 379 -11 652
43 929 182 362 183 580 466 666 864 16 73 16 83 3 97 -12 11 -109 21 -465 44
-247 16 -461 30 -476 30 -24 0 -32 -9 -69 -86 -93 -191 -246 -275 -499 -277
-129 -1 -203 14 -300 60 -92 44 -190 139 -238 230 -33 64 -72 195 -72 245 l0
28 1063 0 c813 0 1066 3 1075 12 15 15 16 355 1 535 -36 445 -187 802 -449
1063 -110 111 -236 203 -369 270 -266 133 -635 194 -970 159z m456 -94 c709
-101 1160 -590 1242 -1347 6 -54 11 -192 11 -308 l0 -210 -1064 0 c-941 0
-1065 -2 -1076 -15 -9 -11 -11 -36 -7 -88 22 -249 156 -459 357 -555 103 -50
208 -72 335 -72 263 0 466 105 565 293 31 60 38 67 65 67 17 0 199 -11 405
-25 206 -14 378 -25 383 -25 15 0 6 -42 -33 -161 -83 -252 -217 -429 -435
-574 -230 -152 -477 -231 -811 -256 -337 -26 -679 33 -938 163 -266 132 -482
351 -618 623 -124 246 -178 507 -178 850 0 530 144 920 454 1231 239 238 539
380 886 417 93 10 364 5 457 -8z"/>
<path d="M5105 4311 c-256 -42 -447 -206 -529 -453 -28 -84 -32 -128 -14 -146
9 -9 162 -12 629 -12 340 0 624 3 633 6 12 4 16 19 16 53 -1 70 -17 128 -63
221 -74 152 -221 272 -384 314 -74 20 -220 28 -288 17z m254 -96 c146 -35 276
-139 343 -275 21 -41 40 -94 44 -117 l7 -43 -557 0 c-306 0 -556 2 -556 5 0 2
10 30 21 62 69 183 222 325 397 367 77 19 222 19 301 1z"/>
</g>
</svg>
